<svg viewBox="134 273 350 92" xmlns="http://www.w3.org/2000/svg" class="roots-wrapper">
    <svg data-root-id="1383060491985" xmlns="http://www.w3.org/2000/svg" xmlns:xlink="http://www.w3.org/1999/xlink" x="123.14" y="213.41" viewBox="81.2 45.9 269.641 370" xml:space="preserve" height="154.47" width="111.41" preserveAspectRatio="xMinYMin" data-layer-role="icon" style="position:absolute;height:154.47px;width:111.41px;top:213.405px;left:123.145px">
        <path class="st0" data-layer-id="6991525892032" style="fill:#fff;fill-opacity:1" d="M126.1 236.1v123l84 34 90-34 3.7-109-93.7-39z"/>
        <path class="st2" d="m213.9 190.4-106 40.9v139l106 40.6 106-40.6v-139l-106-40.9zm79.9 164.2-81.9 31.5-81.9-31.5V246.8l81.9-31.7 81.9 31.7v107.8z" data-layer-id="5091693392083" style="fill:#000;fill-opacity:1"/>
        <path class="st3" data-layer-id="738196592121" style="opacity:.28;fill:#000;fill-opacity:1" d="M297.6 361.4V247.2l-85.7-34.1-85.7 33.4v27.1l86.4-29.8 69.8 26.6 16.1 92.1"/>
        <path class="st4" d="M190.2 279.1c0 11.7-7.4 21.2-16.5 21.2s-16.5-9.5-16.5-21.2 7.4-21.2 16.5-21.2 16.5 9.5 16.5 21.2z" data-layer-id="6744666192144" style="fill:#000;fill-opacity:1"/>
        <path class="st4" d="M264.1 279.1c0 11.7-7.4 21.2-16.5 21.2s-16.5-9.5-16.5-21.2 7.4-21.2 16.5-21.2 16.5 9.5 16.5 21.2z" data-layer-id="7088507692167" style="fill:#000;fill-opacity:1"/>
    </svg>
    <svg data-root-id="1457828692188" xmlns="http://www.w3.org/2000/svg" y="337.75" viewBox="1.47 3.64 240.07 10.02" x="242.66" height="10.02" width="240.07" data-layer-role="slogan" style="position:absolute;top:337.75px;width:240.07px;height:10.02px;left:242.655px">
        <path d="M5.29 3.75q1.91 0 3 .91t1.09 2.51q0 1.59-1.09 2.5-1.09.91-3 .91H2.87v2.97h-1.4v-9.8h3.82zm-.04 5.62q1.33 0 2.03-.57.7-.57.7-1.63 0-1.07-.7-1.63-.7-.57-2.03-.57H2.87v4.4h2.38zm18.27 4.18h-1.53l-2.11-3.01q-.4.03-.62.03h-2.42v2.98h-1.4v-9.8h3.82q1.9 0 3 .91 1.09.91 1.09 2.51 0 1.13-.56 1.93t-1.6 1.16l2.33 3.29zm-4.3-4.17q1.33 0 2.03-.57.7-.58.7-1.64 0-1.07-.7-1.63-.7-.57-2.03-.57h-2.38v4.41h2.38zm14.82 4.28q-1.48 0-2.67-.65t-1.87-1.8q-.68-1.14-.68-2.56 0-1.41.68-2.56.68-1.15 1.87-1.8 1.19-.65 2.67-.65 1.47 0 2.66.65 1.19.65 1.86 1.79.67 1.14.67 2.57t-.67 2.57q-.67 1.14-1.86 1.79-1.19.65-2.66.65zm0-1.24q1.08 0 1.94-.49.86-.49 1.36-1.35.49-.86.49-1.93 0-1.06-.49-1.92-.5-.86-1.36-1.35-.86-.49-1.94-.49t-1.95.49q-.88.49-1.38 1.35-.49.86-.49 1.92 0 1.07.49 1.93.5.86 1.38 1.35.87.49 1.95.49zm13.14 1.13V4.97h-3.36V3.75h8.11v1.22h-3.36v8.58h-1.39zm11.67-1.22h5.72v1.22h-7.12v-9.8h6.92v1.22h-5.52v3.01h4.92v1.19h-4.92v3.16zm16.32 1.33q-1.47 0-2.65-.65t-1.85-1.79q-.68-1.14-.68-2.57t.68-2.57q.67-1.14 1.86-1.79 1.19-.65 2.66-.65 1.15 0 2.1.38.95.39 1.62 1.15l-.91.88q-1.1-1.16-2.76-1.16-1.09 0-1.97.49-.88.49-1.38 1.35-.5.86-.5 1.92 0 1.07.5 1.93.5.86 1.38 1.35.88.49 1.97.49 1.64 0 2.76-1.18l.91.88q-.67.76-1.63 1.15-.96.39-2.11.39zm11.58-.11V4.97h-3.36V3.75h8.1v1.22h-3.36v8.58h-1.38zm25.68-9.8-3.89 6.41v3.39h-1.39v-3.41l-3.89-6.39h1.5l3.13 5.17 3.15-5.17h1.39zm9.42 9.91q-1.49 0-2.68-.65-1.19-.65-1.87-1.8-.67-1.14-.67-2.56 0-1.41.67-2.56.68-1.15 1.87-1.8 1.19-.65 2.68-.65 1.47 0 2.66.65 1.19.65 1.86 1.79.67 1.14.67 2.57t-.67 2.57q-.67 1.14-1.86 1.79-1.19.65-2.66.65zm0-1.24q1.08 0 1.94-.49.86-.49 1.35-1.35.5-.86.5-1.93 0-1.06-.5-1.92-.49-.86-1.35-1.35-.86-.49-1.94-.49t-1.96.49q-.87.49-1.37 1.35-.49.86-.49 1.92 0 1.07.49 1.93.5.86 1.37 1.35.88.49 1.96.49zm15.39 1.24q-1.96 0-3.05-1.12-1.09-1.12-1.09-3.22V3.75h1.4v5.52q0 3.15 2.76 3.15 1.34 0 2.06-.78.71-.78.71-2.37V3.75h1.36v5.57q0 2.12-1.09 3.23-1.1 1.11-3.06 1.11zm19.1-.11h-1.53l-2.11-3.01q-.4.03-.62.03h-2.42v2.98h-1.4v-9.8h3.82q1.9 0 3 .91 1.09.91 1.09 2.51 0 1.13-.56 1.93t-1.6 1.16l2.33 3.29zm-4.3-4.17q1.33 0 2.03-.57.7-.58.7-1.64 0-1.07-.7-1.63-.7-.57-2.03-.57h-2.38v4.41h2.38zm25.08-4.41h-5.52v3.42h4.92v1.2h-4.92v3.96h-1.4v-9.8h6.92v1.22zm12.85 8.58-1.08-2.45h-5.21l-1.08 2.45h-1.44l4.44-9.8h1.38l4.46 9.8h-1.47zm-5.8-3.57h4.23l-2.12-4.8-2.11 4.8zm23.15 3.57h-1.34l-.02-7.14-3.54 5.95h-.64l-3.54-5.91v7.1h-1.35v-9.8h1.15l4.09 6.89 4.03-6.89h1.15l.01 9.8zm6.94 0v-9.8h1.4v9.8h-1.4zm8.34 0v-9.8h1.4v8.58h5.31v1.22h-6.71zm18.94-9.8-3.89 6.41v3.39h-1.39v-3.41l-3.89-6.39h1.5L237 8.92l3.15-5.17h1.39z" data-horizontal-grow="left"/>
    </svg>
    <svg data-root-id="6573370992258" xmlns="http://www.w3.org/2000/svg" y="287.88" viewBox="4.18 13.37 201.58 37.74" x="242.66" height="37.74" width="201.58" data-layer-role="brandName" style="position:absolute;top:287.88px;width:201.58px;height:37.74px;left:242.66px">
        <path d="M4.18 50.42V13.86q3.8-.49 7.8-.49 7.43 0 11.3 3.49 3.87 3.48 3.87 10.43 0 6.21-4.24 9.82-3.96 3.39-10.2 3.39-.71 0-1.55-.09v10.01H4.18zm8.62-30.46q-.82 0-1.64.06V34.4q.87.11 2.13.11 1.26 0 2.62-.54 1.37-.53 2.3-1.49 1.94-1.99 1.94-5.25 0-7.27-7.35-7.27zm36.39 30.46v-2.49q-3.5 2.9-7.63 2.9-4.43 0-6.94-2.98-2.41-2.9-2.41-7.96V29.04q0-5.47-.23-6.28-.23-.8-.34-1.02 1.25.11 2.62.11h2.27q.9 0 2.38-.08V37.6q0 5.63 3.06 6.53.93.28 2.03.28 3.22 0 5.19-2.36v-20.2h6.78v25.07q0 2.41.22 3.5h-7zm21.96-19.9v16.84q0 2.35.11 3.06h-6.81V21.85h6.7v2.1q2.32-2.65 4.88-2.65t4.03.63l-.49 7.36-.11.08q-.96-1.7-3.96-1.7-1.15 0-2.34.78t-2.01 2.07zm10.88 5.85q0-3.2 1.1-5.94 1.09-2.73 3.08-4.78 4.27-4.35 11.16-4.35 5.83 0 9.35 3.86 3.48 3.72 3.48 9.35 0 2.16-.33 2.95-2.74.77-11.13.77h-9.63q.71 2.92 3.31 4.55t6.76 1.63q4.34 0 7.46-1.56.82-.41 1.23-.77-.05 1.15-.14 2.35l-.3 4.27q-2.07 1.42-6.72 1.97-1.37.16-2.63.16-6.94 0-11.48-4.04-4.57-4.08-4.57-10.42zm20.89-3.45q-1.12-5.88-6.4-5.88-4.15 0-6.31 3.59-.66 1.09-1.01 2.4.65.03 1.61.06h2.02q1.01.02 1.94.02h1.56q1.4 0 2.74-.02l2.24-.09q.9-.02 1.61-.08zm36.87 14.84q-2 1.6-5.2 2.47-3.2.88-7.87.88-4.66 0-9.91-.85V14.22q5.31-.85 9.2-.85 3.9 0 6.4.74 2.5.74 4.09 2 3.12 2.43 3.12 6.3 0 3.87-2.82 6.41 3.34 1.04 5.17 3.94 1.67 2.6 1.67 5.75 0 3.16-.92 5.4-.92 2.25-2.93 3.85zm-15.73-28.48v8.53q1.15.19 2.87.19 1.72 0 2.83-.45t1.71-1.14q.98-1.12.98-3.11 0-4.19-4.92-4.19-2.08 0-3.47.17zm4.05 14.38q-2.3 0-4.05.3v10.75q1.91.49 4.02.49 2.1 0 3.7-.51 1.6-.5 2.7-1.38 2.21-1.8 2.21-4.59 0-5.06-8.58-5.06zm18.67 2.63q0-3.01 1.03-5.76 1.02-2.75 2.94-4.8 4.18-4.43 10.85-4.43 6.65 0 10.56 4.18 3.74 4 3.74 10.37 0 6.37-3.85 10.55-4.08 4.43-10.8 4.43-6.95 0-10.89-4.35-3.58-3.96-3.58-10.19zm6.65-.17q0 1.72.57 3.34.57 1.61 1.64 2.76 2.27 2.49 5.96 2.49 3.42 0 5.39-2.44 1.91-2.35 1.91-6.12 0-3.83-1.97-6.18-2.1-2.52-5.77-2.52-3.71 0-5.82 2.68-1.91 2.46-1.91 5.99zm24.41 14.3 9.96-14.57-9.68-14h8.56l5.05 8.72 5.47-8.72h7.96q-.03 0-.6.79l-8.92 12.72 10.12 15.06h-8.47l-5.47-9.27-5.42 9.27h-8.56z" data-horizontal-grow="left"/>
    </svg>
</svg>
