<svg viewBox="134 273 350 92" class="roots-wrapper">
  <g transform="rotate(0 0 0)"><svg data-root-id="1383060491985" xmlns="http://www.w3.org/2000/svg" xmlns:xlink="http://www.w3.org/1999/xlink" version="1.1" id="Layer_1" x="123.14" y="213.41" viewBox="81.19999694824219 45.899993896484375 269.64129638671875 370" xml:space="preserve" height="154.47" width="111.41" preserveAspectRatio="xMinYMin" zoom="1" editorType="buyer" data-layer-role="icon" style="position: absolute; height: 154.47px; width: 111.41px; top: 213.405px; left: 123.145px;">
      <polygon class="st0" points="126.1,236.1 126.1,359.1 210.1,393.1 300.1,359.1 303.8,250.1 210.1,211.1 " name="Layer 1" zoom="1" data-layer-id="6991525892032" style="fill: rgb(255, 255, 255); fill-opacity: 1;"></polygon>
      <path class="st2" d="M213.9,190.4l-106,40.9v139l106,40.6l106-40.6v-139L213.9,190.4z M293.8,354.6l-81.9,31.5L130,354.6V246.8  l81.9-31.7l81.9,31.7V354.6z" name="Layer 3" zoom="1" data-layer-id="5091693392083" style="fill: rgb(0, 0, 0); fill-opacity: 1;"></path>
      <polyline class="st3" points="297.6,361.4 297.6,247.2 211.9,213.1 126.2,246.5 126.2,273.6 212.6,243.8 282.4,270.4 298.5,362.5   " name="Layer 4" zoom="1" data-layer-id="0738196592121" style="opacity: 0.28; fill: rgb(0, 0, 0); fill-opacity: 1;"></polyline>
      <path class="st4" d="M190.2,279.1c0,11.7-7.4,21.2-16.5,21.2s-16.5-9.5-16.5-21.2c0-11.7,7.4-21.2,16.5-21.2  S190.2,267.4,190.2,279.1z" name="Layer 5" zoom="1" data-layer-id="6744666192144" style="fill: rgb(0, 0, 0); fill-opacity: 1;"></path>
      <path class="st4" d="M264.1,279.1c0,11.7-7.4,21.2-16.5,21.2c-9.1,0-16.5-9.5-16.5-21.2c0-11.7,7.4-21.2,16.5-21.2  C256.7,257.9,264.1,267.4,264.1,279.1z" name="Layer 6" zoom="1" data-layer-id="7088507692167" style="fill: rgb(0, 0, 0); fill-opacity: 1;"></path>
    </svg></g>
  <g transform="rotate(0 0 0)"><svg data-root-id="1457828692188" xmlns="http://www.w3.org/2000/svg" y="337.75" viewBox="1.4700000286102295 3.640000104904175 240.0699920654297 10.019999504089355" x="242.66" height="10.02" width="240.07" zoom="1" editorType="buyer" data-layer-role="slogan" style="position: absolute; top: 337.75px; width: 240.07px; height: 10.02px; left: 242.655px;">
      <g data-horizontal-grow="left" zoom="1" root="[object Object]" style="fill: rgb(0, 0, 0); fill-opacity: 1;">
        <path d="M5.29 3.75Q7.20 3.75 8.29 4.66Q9.38 5.57 9.38 7.17L9.38 7.17Q9.38 8.76 8.29 9.67Q7.20 10.58 5.29 10.58L5.29 10.58L2.87 10.58L2.87 13.55L1.47 13.55L1.47 3.75L5.29 3.75ZM5.25 9.37Q6.58 9.37 7.28 8.80Q7.98 8.23 7.98 7.17L7.98 7.17Q7.98 6.10 7.28 5.54Q6.58 4.97 5.25 4.97L5.25 4.97L2.87 4.97L2.87 9.37L5.25 9.37ZM23.52 13.55L21.99 13.55L19.88 10.54Q19.48 10.57 19.26 10.57L19.26 10.57L16.84 10.57L16.84 13.55L15.44 13.55L15.44 3.75L19.26 3.75Q21.16 3.75 22.26 4.66Q23.35 5.57 23.35 7.17L23.35 7.17Q23.35 8.30 22.79 9.10Q22.23 9.90 21.19 10.26L21.19 10.26L23.52 13.55ZM19.22 9.38Q20.55 9.38 21.25 8.81Q21.95 8.23 21.95 7.17L21.95 7.17Q21.95 6.10 21.25 5.54Q20.55 4.97 19.22 4.97L19.22 4.97L16.84 4.97L16.84 9.38L19.22 9.38ZM34.04 13.66Q32.56 13.66 31.37 13.01Q30.18 12.36 29.50 11.21Q28.82 10.07 28.82 8.65L28.82 8.65Q28.82 7.24 29.50 6.09Q30.18 4.94 31.37 4.29Q32.56 3.64 34.04 3.64L34.04 3.64Q35.51 3.64 36.70 4.29Q37.89 4.94 38.56 6.08Q39.23 7.22 39.23 8.65L39.23 8.65Q39.23 10.08 38.56 11.22Q37.89 12.36 36.70 13.01Q35.51 13.66 34.04 13.66L34.04 13.66ZM34.04 12.42Q35.12 12.42 35.98 11.93Q36.84 11.44 37.34 10.58Q37.83 9.72 37.83 8.65L37.83 8.65Q37.83 7.59 37.34 6.73Q36.84 5.87 35.98 5.38Q35.12 4.89 34.04 4.89L34.04 4.89Q32.96 4.89 32.09 5.38Q31.21 5.87 30.71 6.73Q30.22 7.59 30.22 8.65L30.22 8.65Q30.22 9.72 30.71 10.58Q31.21 11.44 32.09 11.93Q32.96 12.42 34.04 12.42L34.04 12.42ZM47.18 13.55L47.18 4.97L43.82 4.97L43.82 3.75L51.93 3.75L51.93 4.97L48.57 4.97L48.57 13.55L47.18 13.55ZM58.85 12.33L64.57 12.33L64.57 13.55L57.45 13.55L57.45 3.75L64.37 3.75L64.37 4.97L58.85 4.97L58.85 7.98L63.77 7.98L63.77 9.17L58.85 9.17L58.85 12.33ZM75.17 13.66Q73.70 13.66 72.52 13.01Q71.34 12.36 70.67 11.22Q69.99 10.08 69.99 8.65L69.99 8.65Q69.99 7.22 70.67 6.08Q71.34 4.94 72.53 4.29Q73.72 3.64 75.19 3.64L75.19 3.64Q76.34 3.64 77.29 4.02Q78.24 4.41 78.91 5.17L78.91 5.17L78.00 6.05Q76.90 4.89 75.24 4.89L75.24 4.89Q74.15 4.89 73.27 5.38Q72.39 5.87 71.89 6.73Q71.39 7.59 71.39 8.65L71.39 8.65Q71.39 9.72 71.89 10.58Q72.39 11.44 73.27 11.93Q74.15 12.42 75.24 12.42L75.24 12.42Q76.88 12.42 78.00 11.24L78.00 11.24L78.91 12.12Q78.24 12.88 77.28 13.27Q76.32 13.66 75.17 13.66L75.17 13.66ZM86.75 13.55L86.75 4.97L83.39 4.97L83.39 3.75L91.49 3.75L91.49 4.97L88.13 4.97L88.13 13.55L86.75 13.55ZM112.43 3.75L108.54 10.16L108.54 13.55L107.15 13.55L107.15 10.14L103.26 3.75L104.76 3.75L107.89 8.92L111.04 3.75L112.43 3.75ZM121.85 13.66Q120.36 13.66 119.17 13.01Q117.98 12.36 117.30 11.21Q116.63 10.07 116.63 8.65L116.63 8.65Q116.63 7.24 117.30 6.09Q117.98 4.94 119.17 4.29Q120.36 3.64 121.85 3.64L121.85 3.64Q123.32 3.64 124.51 4.29Q125.70 4.94 126.37 6.08Q127.04 7.22 127.04 8.65L127.04 8.65Q127.04 10.08 126.37 11.22Q125.70 12.36 124.51 13.01Q123.32 13.66 121.85 13.66L121.85 13.66ZM121.85 12.42Q122.93 12.42 123.79 11.93Q124.65 11.44 125.14 10.58Q125.64 9.72 125.64 8.65L125.64 8.65Q125.64 7.59 125.14 6.73Q124.65 5.87 123.79 5.38Q122.93 4.89 121.85 4.89L121.85 4.89Q120.77 4.89 119.89 5.38Q119.02 5.87 118.52 6.73Q118.03 7.59 118.03 8.65L118.03 8.65Q118.03 9.72 118.52 10.58Q119.02 11.44 119.89 11.93Q120.77 12.42 121.85 12.42L121.85 12.42ZM137.24 13.66Q135.28 13.66 134.19 12.54Q133.10 11.42 133.10 9.32L133.10 9.32L133.10 3.75L134.50 3.75L134.50 9.27Q134.50 12.42 137.26 12.42L137.26 12.42Q138.60 12.42 139.32 11.64Q140.03 10.86 140.03 9.27L140.03 9.27L140.03 3.75L141.39 3.75L141.39 9.32Q141.39 11.44 140.30 12.55Q139.20 13.66 137.24 13.66L137.24 13.66ZM156.34 13.55L154.81 13.55L152.70 10.54Q152.30 10.57 152.08 10.57L152.08 10.57L149.66 10.57L149.66 13.55L148.26 13.55L148.26 3.75L152.08 3.75Q153.98 3.75 155.08 4.66Q156.17 5.57 156.17 7.17L156.17 7.17Q156.17 8.30 155.61 9.10Q155.05 9.90 154.01 10.26L154.01 10.26L156.34 13.55ZM152.04 9.38Q153.37 9.38 154.07 8.81Q154.77 8.23 154.77 7.17L154.77 7.17Q154.77 6.10 154.07 5.54Q153.37 4.97 152.04 4.97L152.04 4.97L149.66 4.97L149.66 9.38L152.04 9.38ZM177.12 4.97L171.60 4.97L171.60 8.39L176.52 8.39L176.52 9.59L171.60 9.59L171.60 13.55L170.20 13.55L170.20 3.75L177.12 3.75L177.12 4.97ZM189.97 13.55L188.89 11.10L183.68 11.10L182.60 13.55L181.16 13.55L185.60 3.75L186.98 3.75L191.44 13.55L189.97 13.55ZM184.17 9.98L188.40 9.98L186.28 5.18L184.17 9.98ZM207.32 13.55L205.98 13.55L205.96 6.41L202.42 12.36L201.78 12.36L198.24 6.45L198.24 13.55L196.89 13.55L196.89 3.75L198.04 3.75L202.13 10.64L206.16 3.75L207.31 3.75L207.32 13.55ZM214.26 13.55L214.26 3.75L215.66 3.75L215.66 13.55L214.26 13.55ZM222.60 13.55L222.60 3.75L224.00 3.75L224.00 12.33L229.31 12.33L229.31 13.55L222.60 13.55ZM241.54 3.75L237.65 10.16L237.65 13.55L236.26 13.55L236.26 10.14L232.37 3.75L233.87 3.75L237.00 8.92L240.15 3.75L241.54 3.75Z" transform="translate(0, 0)"></path>
      </g>
    </svg></g>
  <g transform="rotate(0 0 0)"><svg data-root-id="6573370992258" xmlns="http://www.w3.org/2000/svg" y="287.88" viewBox="4.179999828338623 13.369999885559082 201.5800018310547 37.7400016784668" x="242.66" height="37.74" width="201.58" zoom="1" editorType="buyer" data-layer-role="brandName" style="position: absolute; top: 287.88px; width: 201.58px; height: 37.74px; left: 242.66px;">
      <g data-horizontal-grow="left" zoom="1" root="[object Object]" style="fill: rgb(0, 0, 0); fill-opacity: 1;">
        <path d="M4.18 50.42L4.18 13.86Q7.98 13.37 11.98 13.37L11.98 13.37Q19.41 13.37 23.28 16.86Q27.15 20.34 27.15 27.29L27.15 27.29Q27.15 33.50 22.91 37.11L22.91 37.11Q18.95 40.50 12.71 40.50L12.71 40.50Q12.00 40.50 11.16 40.41L11.16 40.41L11.16 50.42L4.18 50.42ZM12.80 19.96L12.80 19.96Q11.98 19.96 11.16 20.02L11.16 20.02L11.16 34.40Q12.03 34.51 13.29 34.51Q14.55 34.51 15.91 33.97Q17.28 33.44 18.21 32.48L18.21 32.48Q20.15 30.49 20.15 27.23L20.15 27.23Q20.15 19.96 12.80 19.96ZM49.19 50.42L49.19 47.93Q45.69 50.83 41.56 50.83L41.56 50.83Q37.13 50.83 34.62 47.85L34.62 47.85Q32.21 44.95 32.21 39.89L32.21 39.89L32.21 29.04Q32.21 23.57 31.98 22.76Q31.75 21.96 31.64 21.74L31.64 21.74Q32.89 21.85 34.26 21.85L34.26 21.85L36.53 21.85Q37.43 21.85 38.91 21.77L38.91 21.77L38.91 37.60Q38.91 43.23 41.97 44.13L41.97 44.13Q42.90 44.41 44.00 44.41L44.00 44.41Q47.22 44.41 49.19 42.05L49.19 42.05L49.19 21.85L55.97 21.85L55.97 46.92Q55.97 49.33 56.19 50.42L56.19 50.42L49.19 50.42ZM71.15 30.52L71.15 47.36Q71.15 49.71 71.26 50.42L71.26 50.42L64.45 50.42L64.45 21.85L71.15 21.85L71.15 23.95Q73.47 21.30 76.03 21.30Q78.59 21.30 80.06 21.93L80.06 21.93L79.57 29.29L79.46 29.37Q78.50 27.67 75.50 27.67L75.50 27.67Q74.35 27.67 73.16 28.45Q71.97 29.23 71.15 30.52L71.15 30.52ZM82.03 36.37L82.03 36.37Q82.03 33.17 83.13 30.43Q84.22 27.70 86.21 25.65L86.21 25.65Q90.48 21.30 97.37 21.30L97.37 21.30Q103.20 21.30 106.72 25.16L106.72 25.16Q110.20 28.88 110.20 34.51L110.20 34.51Q110.20 36.67 109.87 37.46L109.87 37.46Q107.13 38.23 98.74 38.23L98.74 38.23L89.11 38.23Q89.82 41.15 92.42 42.78Q95.02 44.41 99.18 44.41L99.18 44.41Q103.52 44.41 106.64 42.85L106.64 42.85Q107.46 42.44 107.87 42.08L107.87 42.08Q107.82 43.23 107.73 44.43L107.73 44.43L107.43 48.70Q105.36 50.12 100.71 50.67L100.71 50.67Q99.34 50.83 98.08 50.83L98.08 50.83Q91.14 50.83 86.60 46.79L86.60 46.79Q82.03 42.71 82.03 36.37ZM102.92 32.92L102.92 32.92Q101.80 27.04 96.52 27.04L96.52 27.04Q92.37 27.04 90.21 30.63L90.21 30.63Q89.55 31.72 89.20 33.03L89.20 33.03Q89.85 33.06 90.81 33.09L90.81 33.09L92.83 33.09Q93.84 33.11 94.77 33.11L94.77 33.11L96.33 33.11Q97.73 33.11 99.07 33.09L99.07 33.09L101.31 33.00Q102.21 32.98 102.92 32.92ZM139.79 47.76Q137.79 49.36 134.59 50.23Q131.39 51.11 126.72 51.11Q122.06 51.11 116.81 50.26L116.81 50.26L116.81 14.22Q122.12 13.37 126.01 13.37Q129.91 13.37 132.41 14.11Q134.91 14.85 136.50 16.11L136.50 16.11Q139.62 18.54 139.62 22.41Q139.62 26.28 136.80 28.82L136.80 28.82Q140.14 29.86 141.97 32.76L141.97 32.76Q143.64 35.36 143.64 38.51Q143.64 41.67 142.72 43.91Q141.80 46.16 139.79 47.76ZM124.06 19.28L124.06 27.81Q125.21 28 126.93 28Q128.65 28 129.76 27.55Q130.87 27.10 131.47 26.41L131.47 26.41Q132.45 25.29 132.45 23.30L132.45 23.30Q132.45 19.11 127.53 19.11L127.53 19.11Q125.45 19.11 124.06 19.28L124.06 19.28ZM128.11 33.66L128.11 33.66Q125.81 33.66 124.06 33.96L124.06 33.96L124.06 44.71Q125.97 45.20 128.08 45.20Q130.18 45.20 131.78 44.69Q133.38 44.19 134.48 43.31L134.48 43.31Q136.69 41.51 136.69 38.72L136.69 38.72Q136.69 33.66 128.11 33.66ZM146.78 36.29L146.78 36.29Q146.78 33.28 147.81 30.53Q148.83 27.78 150.75 25.73L150.75 25.73Q154.93 21.30 161.60 21.30L161.60 21.30Q168.25 21.30 172.16 25.48L172.16 25.48Q175.90 29.48 175.90 35.85L175.90 35.85Q175.90 42.22 172.05 46.40L172.05 46.40Q167.97 50.83 161.25 50.83L161.25 50.83Q154.30 50.83 150.36 46.48L150.36 46.48Q146.78 42.52 146.78 36.29ZM153.43 36.12L153.43 36.12Q153.43 37.84 154 39.46Q154.57 41.07 155.64 42.22L155.64 42.22Q157.91 44.71 161.60 44.71L161.60 44.71Q165.02 44.71 166.99 42.27L166.99 42.27Q168.90 39.92 168.90 36.15L168.90 36.15Q168.90 32.32 166.93 29.97L166.93 29.97Q164.83 27.45 161.16 27.45L161.16 27.45Q157.45 27.45 155.34 30.13L155.34 30.13Q153.43 32.59 153.43 36.12ZM177.84 50.42L187.80 35.85L178.12 21.85L186.68 21.85L191.73 30.57L197.20 21.85L205.16 21.85Q205.13 21.85 204.56 22.64L204.56 22.64L195.64 35.36L205.76 50.42L197.29 50.42L191.82 41.15L186.40 50.42L177.84 50.42Z" transform="translate(0, 0)"></path>
      </g>
    </svg></g>
</svg>
